<svg data-logo="logo" xmlns="http://www.w3.org/2000/svg" viewBox="0 0 177 43">
        <g style="opacity: 1;" id="logogram" transform="translate(0, 1) rotate(0)"><path fill-rule="evenodd" clip-rule="evenodd" d="M20.9053 40.0799C31.951 40.0799 40.9053 31.1256 40.9053 20.0799C40.9053 9.03427 31.951 0.0799561 20.9053 0.0799561C9.85956 0.0799561 0.905273 9.03427 0.905273 20.0799C0.905273 31.1256 9.85956 40.0799 20.9053 40.0799ZM27.1446 9.3968C27.4483 8.31801 26.4014 7.68008 25.4453 8.36125L12.0984 17.8695C11.0615 18.6082 11.2246 20.0799 12.3434 20.0799H15.858V20.0527H22.7078L17.1265 22.022L14.666 30.7631C14.3623 31.8419 15.4091 32.4798 16.3653 31.7986L29.7122 22.2904C30.7491 21.5517 30.5859 20.0799 29.4672 20.0799H24.1374L27.1446 9.3968Z" fill="#FF0000"></path></g>
        <g style="opacity: 1;" id="logotype" transform="translate(47, 2)"><path fill="#1a1a1a" d="M21.75 32L15.49 32L15.49 12.01L6.77 12.01L6.77 7.01L30.43 7.01L30.43 12.01L21.75 12.01L21.75 32ZM34.80 32.49L34.80 32.49Q31.83 32.49 30.15 31.07Q28.47 29.66 28.47 27.27L28.47 27.27Q28.47 25.66 29.24 24.49Q30.01 23.32 31.59 22.55Q33.16 21.78 35.51 21.46L35.51 21.46L39.95 20.91Q40.72 20.77 41.11 20.40Q41.49 20.03 41.49 19.40L41.49 19.40L41.49 19.36Q41.49 18.73 41.14 18.30Q40.79 17.86 40.13 17.65Q39.46 17.44 38.48 17.44L38.48 17.44Q37.08 17.44 36.20 17.81Q35.33 18.17 35.16 19.09L35.16 19.09L29.24 19.09Q29.56 17.16 30.80 15.93Q32.04 14.71 34.04 14.11Q36.03 13.52 38.62 13.52L38.62 13.52Q41.56 13.52 43.54 14.27Q45.52 15.02 46.48 16.55Q47.44 18.07 47.44 20.41L47.44 20.41L47.44 32L41.81 32L41.81 27.38L42.40 28.04Q41.73 29.59 40.63 30.55Q39.53 31.51 38.06 32Q36.59 32.49 34.80 32.49ZM36.91 28.36L36.91 28.36Q37.95 28.36 38.81 27.99Q39.67 27.63 40.28 27.01Q40.90 26.40 41.19 25.63Q41.49 24.86 41.49 24.02L41.49 24.02L41.49 21.74L42.44 22.90Q42.02 23.32 41.40 23.53Q40.79 23.74 39.57 23.98L39.57 23.98L36.63 24.51Q35.58 24.75 35.03 25.24Q34.49 25.73 34.49 26.47L34.49 26.47Q34.49 27.38 35.16 27.87Q35.82 28.36 36.91 28.36ZM56.93 32L50.91 32L50.91 7.01L56.93 7.01L56.93 32ZM66.59 32L60.60 32L60.60 7.01L66.59 7.01L66.59 23.18L65.08 22.73L73.27 14.01L80.20 14.01L72.78 21.64Q73.87 22.02 74.64 22.66Q75.41 23.28 76.21 24.51L76.21 24.51L81.36 32L74.50 32L70.86 26.57Q70.33 25.70 69.58 25.63Q68.83 25.56 68.06 26.33L68.06 26.33L65.22 29.34L66.59 25L66.59 32ZM89.23 32L83.18 32L83.18 14.01L89.23 14.01L89.23 32ZM89.23 11.63L83.14 11.63L83.14 7.01L89.23 7.01L89.23 11.63ZM101.20 32L95.18 32L95.18 13.10Q95.18 11.28 95.92 9.91Q96.65 8.55 98.03 7.78Q99.42 7.01 101.41 7.01L101.41 7.01L106.03 7.01L106.03 11.24L103.51 11.24Q102.43 11.24 101.81 11.84Q101.20 12.43 101.20 13.52L101.20 13.52L101.20 32ZM95.74 18.24L91.65 18.24L91.65 14.01L95.74 14.01L95.74 18.24ZM106.03 18.24L100.64 18.24L100.64 14.01L106.03 14.01L106.03 18.24ZM112.93 38.65L109.04 38.65L109.04 34.41L112.33 34.41Q113.31 34.41 113.99 33.98Q114.68 33.54 115.20 32.52L115.20 32.52L116.25 30.39L117.13 34.66L107.15 14.01L113.80 14.01L119.93 28.25L117.48 28.25L123.11 14.01L129.10 14.01L120.45 33.58Q119.26 36.27 117.49 37.46Q115.73 38.65 112.93 38.65L112.93 38.65Z"></path></g>
        
      </svg>